<svg id="Layer_1" data-name="Layer 1" xmlns="http://www.w3.org/2000/svg" viewBox="0 0 375.22 375.17"><defs><style>.cls-1{fill:#b3eef0;}.cls-2{fill:#f4ee1b;}.cls-3{fill:#bcaf2c;}.cls-4{fill:#988637;}.cls-5{fill:#786542;}.cls-6{fill:#3e2152;}.cls-7{fill:#5f4648;}</style></defs><title>safari-pinned-tab</title><path class="cls-1" d="M187.11,375.08q-91.47,0-182.94.09c-3.3,0-4.16-.48-4.16-4Q.19,187.71,0,4.27C0,.48,1,0,4.43,0Q187.61.15,370.8,0c3.45,0,4.42.51,4.42,4.27q-.2,183.45,0,366.88c0,3.56-.88,4-4.16,4Q279.07,375,187.11,375.08ZM189,275.25q34.54-21.1,69.11-42.21a4.2,4.2,0,0,0,2.29-4c-.13-20.13-.17-40.26-.23-60.39L286,155.59a11.31,11.31,0,0,0-1.24-1.49c-6.59-5-13.16-10-19.8-15-2.66-2-4.41-3.84-1.67-7.14,2.52-3.05,4.77-6.32,7.05-9.56,3.39-4.82,6.69-9.7,10.28-14.92-11.65-1.9-22.88-2.68-34-3.69-13.15-1.2-26.13-4.13-39.45-4-2.82,0-4.08.56-5.52,2.54-3.78,5.22-7.71,10.34-11.57,15.52-1.55,2.08-2.6,3-4.58,0-3.43-5.24-7.61-10-11.16-15.15-2.07-3-4.33-3.79-7.94-3.24-16.47,2.53-33.06,4-49.64,5.75-7.08.72-14.11,2-22,2.28,6.12,8.74,11.52,16.68,17.2,24.43,1.93,2.64,2.2,4-.79,6.21-7.46,5.39-14.58,11.25-22.33,17.31l25,12.63c.07,19.35.12,38.69.25,58,0,1.72-.74,3.65.8,5.17a4.74,4.74,0,0,0,.94,1.12q34.32,21.18,68.7,42.27C185.77,275.4,187.25,276.87,189,275.25Z"/><path class="cls-2" d="M113.82,168l-25-12.63c7.75-6.06,14.87-11.92,22.33-17.31,3-2.17,2.72-3.57.79-6.21-5.68-7.75-11.08-15.69-17.2-24.43,7.89-.23,14.92-1.56,22-2.28,16.58-1.71,33.17-3.22,49.64-5.75,3.61-.55,5.87.22,7.94,3.24,3.55,5.17,7.73,9.91,11.16,15.15,2,3,3,2.09,4.58,0,3.86-5.18,7.79-10.3,11.57-15.52,1.44-2,2.7-2.52,5.52-2.54,13.32-.09,26.3,2.84,39.45,4,11.1,1,22.33,1.79,34,3.69-3.59,5.22-6.89,10.1-10.28,14.92-2.28,3.24-4.53,6.51-7.05,9.56-2.74,3.3-1,5.17,1.67,7.14,6.64,4.94,13.21,10,19.8,15a11.31,11.31,0,0,1,1.24,1.49l-25.85,13.06c-14.45,7.15-29,14.18-43.3,21.53-3.17,1.62-4.63,1.2-6.91-1.5-7.26-8.63-13.66-18-21.79-25.89-2.9-.25-3.66,2.44-5,4-6.16,7.2-12.28,14.44-18,22-2.28,3-3.94,2.88-6.92,1.37C144,183,129.64,176,115.31,169Zm74.25-45.79c-4-.32-7.85,1.11-11.73,1.84-19.79,3.71-39.55,7.56-60.15,11.52a18.12,18.12,0,0,0,2.36,1.35q32.91,11.42,65.82,22.77c1.2.41,2.42,1.24,3.8.47a23.58,23.58,0,0,0,2.89-.62q27.09-9.33,54.15-18.75c4.27-1.5,8.78-2.5,13.58-5.27-9.35-1.81-17.75-3.47-26.17-5.05Q210.36,126.33,188.07,122.24Z"/><path class="cls-3" d="M115.31,169c14.33,7,28.7,14,43,21.21,3,1.51,4.64,1.66,6.92-1.37,5.68-7.57,11.8-14.81,18-22,1.33-1.56,2.09-4.25,5-4q0,54.11-.08,108.19c0,1.48-.21,3,.91,4.27-1.72,1.62-3.2.15-4.45-.62q-34.4-21.06-68.7-42.27a4.48,4.48,0,0,1-.93-1.12c.07-2.49.19-5,.2-7.46Q115.21,196.36,115.31,169Z"/><path class="cls-4" d="M189,275.25c-1.12-1.25-.91-2.79-.91-4.27q0-54.09.08-108.19c8.13,7.9,14.53,17.26,21.79,25.89,2.28,2.7,3.74,3.12,6.91,1.5,14.34-7.35,28.85-14.38,43.3-21.53.06,20.13.1,40.26.23,60.39a4.2,4.2,0,0,1-2.29,4Q223.51,254.13,189,275.25Z"/><path class="cls-5" d="M115.31,169q-.11,27.4-.22,54.82c0,2.48-.13,5-.2,7.46-1.55-1.52-.8-3.45-.81-5.17-.13-19.35-.18-38.69-.26-58Z"/><path class="cls-6" d="M188.17,160.19c-1.38.77-2.6-.06-3.8-.47Q151.45,148.38,118.55,137a18.12,18.12,0,0,1-2.36-1.35c20.6-4,40.36-7.81,60.15-11.52,3.88-.73,7.68-2.16,11.73-1.84Z"/><path class="cls-7" d="M188.17,160.19l-.1-37.95q22.27,4.13,44.55,8.26c8.42,1.58,16.82,3.24,26.17,5.05-4.8,2.77-9.31,3.77-13.58,5.27q-27,9.48-54.15,18.75A23.58,23.58,0,0,1,188.17,160.19Z"/></svg>