<?xml version="1.0" encoding="utf-8"?>
<!-- Generator: Adobe Illustrator 25.3.1, SVG Export Plug-In . SVG Version: 6.00 Build 0)  -->
<svg version="1.1" id="Layer_1" xmlns="http://www.w3.org/2000/svg" xmlns:xlink="http://www.w3.org/1999/xlink" x="0px" y="0px"
	 viewBox="0 0 24 24" style="enable-background:new 0 0 24 24;" xml:space="preserve">
<style type="text/css">
	.st0{fill-rule:evenodd;clip-rule:evenodd;}
</style>
<path class="st0" d="M10.5,21c-0.3,0-0.5-0.2-0.5-0.5s0.2-0.5,0.5-0.5s0.5,0.2,0.5,0.5S10.8,21,10.5,21 M10.5,19
	C9.7,19,9,19.7,9,20.5S9.7,22,10.5,22s1.5-0.7,1.5-1.5S11.3,19,10.5,19 M16.5,21c-0.3,0-0.5-0.2-0.5-0.5s0.2-0.5,0.5-0.5
	c0.3,0,0.5,0.2,0.5,0.5S16.8,21,16.5,21 M16.5,19c-0.8,0-1.5,0.7-1.5,1.5s0.7,1.5,1.5,1.5c0.8,0,1.5-0.7,1.5-1.5S17.3,19,16.5,19
	 M0,2h3.8l0.7,3H24l-4.1,13H6.6L3,3H0C0,3,0,2,0,2z M4.7,6l2.7,11h11.8l3.4-11C22.6,6,4.7,6,4.7,6z"/>
</svg>
