<?xml version="1.0" encoding="utf-8"?>
<!-- Generator: Adobe Illustrator 25.3.1, SVG Export Plug-In . SVG Version: 6.00 Build 0)  -->
<svg version="1.1" id="Layer_1" xmlns="http://www.w3.org/2000/svg" xmlns:xlink="http://www.w3.org/1999/xlink" x="0px" y="0px"
	 viewBox="0 0 24 24" style="enable-background:new 0 0 24 24;" xml:space="preserve">
<style type="text/css">
	.st0{fill-rule:evenodd;clip-rule:evenodd;fill:#1040E2;}
	.st1{fill-rule:evenodd;clip-rule:evenodd;}
</style>
<path class="st0" d="M24,18v1H0v-1H24z M24,12v1H0v-1H24z M24,6v1H0V6H24z"/>
<path class="st1" d="M24,19H0v-1h24V19z M24,13H0v-1h24V13z M24,7H0V6h24V7z"/>
<path class="st0" d="M24,17.5v1H0v-1H24z M24,11.5v1H0v-1H24z M24,5.5v1H0v-1H24z"/>
<path class="st1" d="M24,18.5H0v-1h24V18.5z M24,12.5H0v-1h24V12.5z M24,6.5H0v-1h24V6.5z"/>
</svg>
